<svg xmlns="http://www.w3.org/2000/svg" viewBox="0 0 62.321 62.088">
  <defs>
    <style>
      .cls-1 {
        fill: #dfc088;
      }
    </style>
  </defs>
  <g id="birthday-cake" transform="translate(0 -0.956)">
    <g id="Group_3" data-name="Group 3" transform="translate(0 0.956)">
      <g id="Group_2" data-name="Group 2" transform="translate(0 0)">
        <path id="Path_16" data-name="Path 16" class="cls-1" d="M61.3,55.33H57.84V43.341a4.872,4.872,0,0,0-4.867-4.867h-1.5v-12.5a4.361,4.361,0,0,0-4.356-4.356H34.973V11.569a1.025,1.025,0,0,0-1.025-1.025H32.185V9.014a3.369,3.369,0,0,0,2.339-3.2c0-1.57-2-3.86-2.611-4.524a1.024,1.024,0,0,0-1.507,0C29.795,1.95,27.8,4.24,27.8,5.81a3.37,3.37,0,0,0,2.339,3.2v1.531H28.372a1.025,1.025,0,0,0-1.025,1.025V21.618H15.2a4.361,4.361,0,0,0-4.356,4.356V34.99a1.025,1.025,0,1,0,2.049,0V25.974A2.309,2.309,0,0,1,15.2,23.668H47.116a2.309,2.309,0,0,1,2.307,2.307v12.5H9.348a4.872,4.872,0,0,0-4.867,4.867v8.409a1.025,1.025,0,1,0,2.049,0V43.341a2.82,2.82,0,0,1,2.817-2.817H52.973a2.82,2.82,0,0,1,2.817,2.817V55.33H1.025A1.025,1.025,0,0,0,0,56.355a6.7,6.7,0,0,0,6.689,6.689H55.631a6.7,6.7,0,0,0,6.689-6.689A1.025,1.025,0,0,0,61.3,55.33ZM29.846,5.81A6.221,6.221,0,0,1,31.16,3.562,6.221,6.221,0,0,1,32.475,5.81a1.314,1.314,0,1,1-2.629,0Zm3.078,15.808H29.4V12.594h3.527ZM55.631,60.994H6.689a4.648,4.648,0,0,1-4.526-3.615H60.157A4.648,4.648,0,0,1,55.631,60.994Z" transform="translate(0 -0.956)"/>
      </g>
    </g>
    <g id="Group_5" data-name="Group 5" transform="translate(15.109 26.476)">
      <g id="Group_4" data-name="Group 4">
        <path id="Path_17" data-name="Path 17" class="cls-1" d="M155,210.8a4.729,4.729,0,0,0-3.33,1.792c-.744.733-1.237,1.176-1.768,1.162-.5-.015-.881-.447-1.462-1.152a4.063,4.063,0,0,0-2.982-1.9,4.416,4.416,0,0,0-3.215,1.722c-.772.765-1.286,1.23-1.925,1.23h0c-.631,0-1.129-.465-1.875-1.232a4.6,4.6,0,0,0-3.246-1.812h-.028a4.69,4.69,0,0,0-3.347,1.982c-.718.786-1.194,1.264-1.747,1.264h0c-.554,0-1.019-.48-1.719-1.267a4.387,4.387,0,0,0-3.183-1.923h-.017a1.025,1.025,0,0,0,.006,2.049h.011c.517,0,.969.467,1.652,1.235a4.47,4.47,0,0,0,3.245,1.956h.009a4.542,4.542,0,0,0,3.26-1.931c.744-.815,1.24-1.31,1.851-1.315.594,0,1.066.449,1.788,1.191a4.7,4.7,0,0,0,3.343,1.852h0a4.839,4.839,0,0,0,3.367-1.824c.706-.7,1.176-1.129,1.686-1.129h.027c.5.015.88.447,1.461,1.151a4.065,4.065,0,0,0,2.983,1.9,4.564,4.564,0,0,0,3.267-1.751c.765-.755,1.271-1.215,1.854-1.2A1.025,1.025,0,1,0,155,210.8Z" transform="translate(-124.133 -210.616)"/>
      </g>
    </g>
    <g id="Group_7" data-name="Group 7" transform="translate(8.63 43.526)">
      <g id="Group_6" data-name="Group 6">
        <path id="Path_18" data-name="Path 18" class="cls-1" d="M115.175,350.8c-1.531-.048-2.548.965-3.447,1.857-.741.734-1.38,1.369-2.166,1.374-.61-.013-1.047-.468-1.708-1.207a4.483,4.483,0,0,0-3.279-1.922h-.06A5.15,5.15,0,0,0,101,352.831c-.717.707-1.336,1.316-2.005,1.3-.588-.017-1.018-.5-1.671-1.3a4.369,4.369,0,0,0-3.191-2.039c-1.529-.048-2.548.965-3.447,1.857-.743.737-1.385,1.373-2.175,1.374h0c-.728,0-1.287-.52-2.12-1.377a4.951,4.951,0,0,0-3.483-1.953h-.03c-1.653.014-2.728,1.191-3.592,2.137-.8.88-1.338,1.414-1.983,1.414h0c-.646,0-1.169-.538-1.952-1.419-.824-.927-1.846-2.076-3.429-2.072a1.025,1.025,0,0,0,.006,2.049h.006c.611-.009,1.118.521,1.886,1.384.833.937,1.869,2.1,3.478,2.107h.01c1.594,0,2.6-1.106,3.5-2.081.832-.911,1.388-1.464,2.1-1.47h.011c.67,0,1.209.5,2.015,1.333a5.068,5.068,0,0,0,3.589,2h0a5.218,5.218,0,0,0,3.616-1.968c.8-.8,1.333-1.28,1.944-1.263.587.017,1.017.5,1.67,1.294a4.37,4.37,0,0,0,3.192,2.04c1.545.048,2.585-.982,3.5-1.888.738-.727,1.373-1.36,2.1-1.343.656.011,1.107.478,1.787,1.239a4.4,4.4,0,0,0,3.213,1.889h.016a5.218,5.218,0,0,0,3.616-1.968c.8-.8,1.335-1.278,1.944-1.263a1.025,1.025,0,1,0,.06-2.048Z" transform="translate(-70.899 -350.696)"/>
      </g>
    </g>
  </g>
</svg>
