<svg xmlns="http://www.w3.org/2000/svg" viewBox="0 0 34.822 42.539">
  <defs>
    <style>
      .cls-1 {
        fill: #533;
      }
    </style>
  </defs>
  <g id="cake" transform="translate(-42.561)">
    <g id="Group_84" data-name="Group 84" transform="translate(42.56)">
      <g id="Group_83" data-name="Group 83">
        <path id="Path_85" data-name="Path 85" class="cls-1" d="M195.76,11.6a3.869,3.869,0,0,0,3.316-5.859L195.76,0l-3.316,5.743A3.869,3.869,0,0,0,195.76,11.6Z" transform="translate(-178.358)"/>
        <path id="Path_86" data-name="Path 86" class="cls-1" d="M71.564,153.2H61.9v-3.867H58.029V153.2H48.361a5.805,5.805,0,0,0-5.8,5.8v2.978a3.787,3.787,0,0,0,6.468,2.678l4.138-4.128,4.128,4.119a3.878,3.878,0,0,0,5.356,0l4.138-4.119,4.128,4.119a3.787,3.787,0,0,0,6.468-2.678V159A5.834,5.834,0,0,0,71.564,153.2Z" transform="translate(-42.56 -135.798)"/>
        <path id="Path_87" data-name="Path 87" class="cls-1" d="M68.847,320.159h0l-2.079-2.079-2.088,2.079a6.851,6.851,0,0,1-9.455,0l-2.079-2.079-2.088,2.079a6.555,6.555,0,0,1-4.708,1.963,6.676,6.676,0,0,1-3.79-1.189v8.924a1.939,1.939,0,0,0,1.934,1.934H75.431a1.939,1.939,0,0,0,1.934-1.934v-8.923a6.657,6.657,0,0,1-8.517-.773Z" transform="translate(-42.56 -289.25)"/>
      </g>
    </g>
  </g>
</svg>
