<svg id="shopping-cart" xmlns="http://www.w3.org/2000/svg" viewBox="0 0 28.5 27.645">
  <defs>
    <style>
      .cls-1 {
        fill: #fff;
      }
    </style>
  </defs>
  <g id="shopping-cart-2" data-name="shopping-cart">
    <path id="Path_8" data-name="Path 8" class="cls-1" d="M8.55,22.116a2.766,2.766,0,1,0,2.85,2.765A2.817,2.817,0,0,0,8.55,22.116ZM0,0V2.765H2.85L7.98,13.27,5.985,16.587A4.782,4.782,0,0,0,5.7,17.97a2.817,2.817,0,0,0,2.85,2.765h17.1V17.97H9.12a.3.3,0,0,1-.285-.276v-.138l1.282-2.35H20.662a2.611,2.611,0,0,0,2.422-1.382l5.13-8.985a.749.749,0,0,0,.285-.691,1.327,1.327,0,0,0-1.425-1.382H5.985L4.7,0ZM22.8,22.116a2.766,2.766,0,1,0,2.85,2.765A2.817,2.817,0,0,0,22.8,22.116Z"/>
  </g>
</svg>
