<svg id="Ресурс_6" data-name="Ресурс 6" xmlns="http://www.w3.org/2000/svg" viewBox="0 0 120.874 7.194">
  <defs>
    <style>
      .cls-1 {
        fill: #dfc088;
      }
    </style>
  </defs>
  <g id="Слой_3" data-name="Слой 3">
    <path id="Path_25" data-name="Path 25" class="cls-1" d="M18.259,10.8a.7.7,0,1,1-.7-.7A.7.7,0,0,1,18.259,10.8Z" transform="translate(-12.026 -7.204)"/>
    <path id="Path_26" data-name="Path 26" class="cls-1" d="M28.885,10.8a.7.7,0,1,1-.7-.7.7.7,0,0,1,.7.7Z" transform="translate(-19.601 -7.204)"/>
    <path id="Path_27" data-name="Path 27" class="cls-1" d="M39.5,10.8a.7.7,0,1,1-.7-.7A.7.7,0,0,1,39.5,10.8Z" transform="translate(-27.176 -7.204)"/>
    <path id="Path_28" data-name="Path 28" class="cls-1" d="M50.155,10.8a.7.7,0,1,1-.7-.7.7.7,0,0,1,.7.7Z" transform="translate(-34.773 -7.204)"/>
    <path id="Path_29" data-name="Path 29" class="cls-1" d="M60.785,10.8a.7.7,0,1,1-.7-.7.7.7,0,0,1,.7.7Z" transform="translate(-42.355 -7.204)"/>
    <path id="Path_30" data-name="Path 30" class="cls-1" d="M71.425,10.8a.7.7,0,1,1-.7-.7.7.7,0,0,1,.7.7Z" transform="translate(-49.945 -7.204)"/>
    <path id="Path_31" data-name="Path 31" class="cls-1" d="M82.055,10.8a.7.7,0,1,1-.7-.7A.7.7,0,0,1,82.055,10.8Z" transform="translate(-57.527 -7.204)"/>
    <path id="Path_32" data-name="Path 32" class="cls-1" d="M92.695,10.8a.7.7,0,1,1-.7-.7.7.7,0,0,1,.7.7Z" transform="translate(-65.116 -7.204)"/>
    <path id="Path_33" data-name="Path 33" class="cls-1" d="M103.325,10.8a.7.7,0,1,1-.7-.7A.7.7,0,0,1,103.325,10.8Z" transform="translate(-72.698 -7.204)"/>
    <path id="Path_34" data-name="Path 34" class="cls-1" d="M113.965,10.8a.7.7,0,1,1-.705-.7A.7.7,0,0,1,113.965,10.8Z" transform="translate(-80.288 -7.204)"/>
    <path id="Path_35" data-name="Path 35" class="cls-1" d="M124.595,10.8a.7.7,0,1,1-.7-.7A.7.7,0,0,1,124.595,10.8Z" transform="translate(-87.87 -7.204)"/>
    <path id="Path_36" data-name="Path 36" class="cls-1" d="M135.235,10.8a.7.7,0,1,1-.7-.7.7.7,0,0,1,.7.7Z" transform="translate(-95.46 -7.204)"/>
    <path id="Path_37" data-name="Path 37" class="cls-1" d="M145.865,10.8a.7.7,0,1,1-.7-.7A.7.7,0,0,1,145.865,10.8Z" transform="translate(-103.042 -7.204)"/>
    <path id="Path_38" data-name="Path 38" class="cls-1" d="M156.5,10.8a.7.7,0,1,1-.7-.7.7.7,0,0,1,.7.7Z" transform="translate(-110.631 -7.204)"/>
    <path id="Path_39" data-name="Path 39" class="cls-1" d="M167.135,10.8a.7.7,0,1,1-.7-.7A.7.7,0,0,1,167.135,10.8Z" transform="translate(-118.214 -7.204)"/>
    <path id="Path_40" data-name="Path 40" class="cls-1" d="M177.775,10.8a.7.7,0,1,1-.7-.7.7.7,0,0,1,.7.7Z" transform="translate(-125.803 -7.204)"/>
    <path id="Path_41" data-name="Path 41" class="cls-1" d="M188.4,10.8a.7.7,0,1,1-.7-.7A.7.7,0,0,1,188.4,10.8Z" transform="translate(-133.385 -7.204)"/>
    <path id="Path_42" data-name="Path 42" class="cls-1" d="M199.045,10.8a.7.7,0,1,1-.7-.7.7.7,0,0,1,.7.7Z" transform="translate(-140.975 -7.204)"/>
    <path id="Path_43" data-name="Path 43" class="cls-1" d="M209.675,10.8a.7.7,0,1,1-.7-.7A.7.7,0,0,1,209.675,10.8Z" transform="translate(-148.557 -7.204)"/>
    <path id="Path_44" data-name="Path 44" class="cls-1" d="M220.315,10.8a.7.7,0,1,1-.7-.7A.7.7,0,0,1,220.315,10.8Z" transform="translate(-156.146 -7.204)"/>
    <path id="Path_45" data-name="Path 45" class="cls-1" d="M230.945,10.8a.7.7,0,1,1-.7-.7A.7.7,0,0,1,230.945,10.8Z" transform="translate(-163.729 -7.204)"/>
    <path id="Path_46" data-name="Path 46" class="cls-1" d="M241.585,10.8a.7.7,0,1,1-.7-.7.7.7,0,0,1,.7.7Z" transform="translate(-171.318 -7.204)"/>
    <path id="Path_47" data-name="Path 47" class="cls-1" d="M252.215,10.8a.7.7,0,1,1-.7-.7.7.7,0,0,1,.7.7Z" transform="translate(-178.9 -7.204)"/>
    <path id="Path_48" data-name="Path 48" class="cls-1" d="M262.855,10.8a.7.7,0,1,1-.7-.7.7.7,0,0,1,.7.7Z" transform="translate(-186.49 -7.204)"/>
    <path id="Path_49" data-name="Path 49" class="cls-1" d="M273.5,10.8a.7.7,0,1,1-.7-.7A.7.7,0,0,1,273.5,10.8Z" transform="translate(-194.086 -7.204)"/>
    <path id="Path_50" data-name="Path 50" class="cls-1" d="M284.125,10.8a.7.7,0,1,1-.7-.7.7.7,0,0,1,.7.7Z" transform="translate(-201.661 -7.204)"/>
    <path id="Path_51" data-name="Path 51" class="cls-1" d="M294.755,10.8a.7.7,0,1,1-.7-.7A.7.7,0,0,1,294.755,10.8Z" transform="translate(-209.244 -7.204)"/>
    <path id="Path_52" data-name="Path 52" class="cls-1" d="M305.395,10.8a.7.7,0,1,1-.7-.7.7.7,0,0,1,.7.7Z" transform="translate(-216.833 -7.204)"/>
    <path id="Path_53" data-name="Path 53" class="cls-1" d="M316.025,10.8a.7.7,0,1,1-.7-.7.7.7,0,0,1,.7.7Z" transform="translate(-224.415 -7.204)"/>
    <path id="Path_54" data-name="Path 54" class="cls-1" d="M326.665,10.8a.7.7,0,1,1-.7-.7.7.7,0,0,1,.7.7Z" transform="translate(-232.005 -7.204)"/>
    <path id="Path_55" data-name="Path 55" class="cls-1" d="M337.295,10.8a.7.7,0,1,1-.7-.7A.7.7,0,0,1,337.295,10.8Z" transform="translate(-239.587 -7.204)"/>
    <path id="Path_56" data-name="Path 56" class="cls-1" d="M347.935,10.8a.7.7,0,1,1-.7-.7.7.7,0,0,1,.7.7Z" transform="translate(-247.176 -7.204)"/>
    <path id="Path_57" data-name="Path 57" class="cls-1" d="M358.565,10.8a.7.7,0,1,1-.7-.7A.7.7,0,0,1,358.565,10.8Z" transform="translate(-254.759 -7.204)"/>
    <path id="Path_58" data-name="Path 58" class="cls-1" d="M369.2,10.8a.7.7,0,1,1-.7-.7.7.7,0,0,1,.7.7Z" transform="translate(-262.348 -7.204)"/>
    <path id="Path_59" data-name="Path 59" class="cls-1" d="M379.835,10.8a.7.7,0,1,1-.7-.7A.7.7,0,0,1,379.835,10.8Z" transform="translate(-269.93 -7.204)"/>
    <path id="Path_60" data-name="Path 60" class="cls-1" d="M390.519,10.8a.7.7,0,1,1-.7-.7A.7.7,0,0,1,390.519,10.8Z" transform="translate(-277.555 -7.204)"/>
    <path id="Path_61" data-name="Path 61" class="cls-1" d="M401.1,10.8a.7.7,0,1,1-.7-.7A.7.7,0,0,1,401.1,10.8Z" transform="translate(-285.102 -7.204)"/>
    <path id="Path_62" data-name="Path 62" class="cls-1" d="M0,10.043,1.95,11.05l2.073-1.006-2.073-1Z" transform="translate(0 -6.448)"/>
    <path id="Path_63" data-name="Path 63" class="cls-1" d="M6.53,0l.439,2.15,2.079.986L8.534.895Z" transform="translate(-4.658)"/>
    <path id="Path_64" data-name="Path 64" class="cls-1" d="M6.53,17.287l.439-2.15,2.079-.986-.513,2.242Z" transform="translate(-4.658 -10.093)"/>
    <path id="Path_65" data-name="Path 65" class="cls-1" d="M411.583,10.043,409.63,11.05l-2.07-1.006,2.07-1,1.953,1" transform="translate(-290.708 -6.448)"/>
    <path id="Path_66" data-name="Path 66" class="cls-1" d="M408.794,0l-.436,2.15-2.079.986.513-2.242Z" transform="translate(-289.795)"/>
    <path id="Path_67" data-name="Path 67" class="cls-1" d="M408.794,17.287l-.436-2.15-2.079-.986.513,2.242Z" transform="translate(-289.795 -10.093)"/>
  </g>
</svg>
