<svg xmlns="http://www.w3.org/2000/svg" viewBox="0 0 190.322 60.893">
  <defs>
    <style>
      .cls-1 {
        opacity: 0.5;
      }

      .cls-2 {
        fill: #dfc088;
      }
    </style>
  </defs>
  <g id="Group_14" data-name="Group 14" class="cls-1" transform="translate(232.422 399.232) rotate(180)">
    <path id="Path_2" data-name="Path 2" class="cls-2" d="M192.69,378a19.24,19.24,0,0,0-1.819-8.325c-4.525-9.795-15.787-13.73-25.936-13.73h-1.389a14.074,14.074,0,0,0-2.843-7.085,22.58,22.58,0,0,0-5.334-5.186c-.146-.074-.367-.217-.514-.292a27.994,27.994,0,0,0-7.888-3.724,28.871,28.871,0,0,0-8.544-1.315,52.151,52.151,0,0,0-15.775,2.336,80.778,80.778,0,0,0-13.876,5.844c-6.9,3.662-13.288,8.327-20.063,12.3-5.56,3.258-11.2,6.656-17.263,8.809a34.208,34.208,0,0,1-14.44,2.188c-4.642-.435-10.058-2.79-12.019-7.313-2.218-5.115.624-10.642,5.056-13.47a10.088,10.088,0,0,1,9.7-.915c2.4,1.127,5.156,5.449,8.2,4.032a2.929,2.929,0,0,0,1.634-2.776c-.051-1.485-1.31-2.708-2.4-3.584a15.579,15.579,0,0,0-13.264-3.008,15.8,15.8,0,0,0-9.665,6.63,14.381,14.381,0,0,0,2.368,18,16.383,16.383,0,0,0,11.614,4.234c15.431,0,30.034-8.209,42.871-15.994,4.455-2.7,8.838-5.259,13-7.667a91.511,91.511,0,0,1,12.414-5.991,33.491,33.491,0,0,1,11.906-2.336,29.618,29.618,0,0,1,16.216,4.966c.216.146.508.365.729.511a21.821,21.821,0,0,1,4.672,4.676,12.347,12.347,0,0,1,2.56,6.134,24,24,0,0,0-7.231,1.46,15.61,15.61,0,0,0-4.237,2.264c-3,2.191-4.453,4.748-4.453,7.6a5.086,5.086,0,0,0,1.167,3.359c.806,1.021,2.113,1.534,4.019,1.534a10.68,10.68,0,0,0,3.5-.585,6.68,6.68,0,0,0,1.9-.948,12.108,12.108,0,0,0,3.724-3.725,18.429,18.429,0,0,0,2.089-4.967c.108-.4.923-4.824.7-4.832.383.013.768.011,1.152.011,8.746,0,17.8,3.113,22.368,11.08a19.371,19.371,0,0,1,2.435,7.735,18.628,18.628,0,0,1-1.608,9.713,9.288,9.288,0,0,0-2.566-8.969,7.44,7.44,0,0,0-8.413-1.172c-3.413,1.888-4.405,6.9-1.39,9.611,2.459,2.212,7.748,1.389,7.949-2.442.107-2.043-1.86-4.489-4.063-3.594a2.609,2.609,0,0,0-1.416,1.422,2.1,2.1,0,0,0,.012,1.9,1.055,1.055,0,0,0,1.826-.274c.288-.631.854-1.572,1.673-1.462.849.114,1.11,1.189.969,1.9a3.289,3.289,0,0,1-3.535,2.5c-3.739-.316-4.532-4.705-2.126-7.134,2.474-2.5,6.736-1.291,8.535,1.395,1.913,2.854,1.525,6.577-.14,9.439-3.428,5.893-10.749,8.49-17.25,8.089a30.479,30.479,0,0,1-20.214-10.068,4.046,4.046,0,0,0-3.161-1.673,2.672,2.672,0,0,0-2.377,2.563c-.175,2.794,2.9,4.837,4.932,6.205a30.375,30.375,0,0,0,8.862,4.066,37.046,37.046,0,0,0,14.212,1.027A32,32,0,0,0,181.6,395.7a21.042,21.042,0,0,0,8.534-8.035A19.188,19.188,0,0,0,192.69,378Zm-29.943-20.742a12.406,12.406,0,0,1-.878,4.456,16.283,16.283,0,0,1-2.265,4.161,12.142,12.142,0,0,1-3.508,3.214,6.358,6.358,0,0,1-.727.366,8.629,8.629,0,0,1-3.875.877,3.16,3.16,0,0,1-2.629-1.024,3.44,3.44,0,0,1-.878-2.336c0-2.483,1.394-4.674,4.169-6.646a16.388,16.388,0,0,1,3.213-1.678,22.417,22.417,0,0,1,7.377-1.536Z"/>
    <path id="Path_3" data-name="Path 3" class="cls-2" d="M97.875,387.665a21.036,21.036,0,0,0,8.534,8.035,32,32,0,0,0,11.143,3.264,37.046,37.046,0,0,0,14.212-1.027,30.366,30.366,0,0,0,8.862-4.066c2.029-1.369,5.106-3.411,4.932-6.205a2.671,2.671,0,0,0-2.376-2.563,4.047,4.047,0,0,0-3.161,1.673,30.477,30.477,0,0,1-20.213,10.068c-6.5.4-13.822-2.2-17.249-8.089-1.665-2.862-2.054-6.585-.141-9.439,1.8-2.686,6.061-3.892,8.535-1.395,2.406,2.429,1.614,6.818-2.126,7.134a3.289,3.289,0,0,1-3.535-2.5c-.14-.714.12-1.788.969-1.9.818-.111,1.384.831,1.673,1.462a1.055,1.055,0,0,0,1.826.274,2.1,2.1,0,0,0,.012-1.9,2.609,2.609,0,0,0-1.416-1.422c-2.2-.9-4.169,1.551-4.062,3.594.2,3.831,5.489,4.654,7.949,2.442,3.015-2.711,2.023-7.723-1.39-9.611a7.44,7.44,0,0,0-8.413,1.172,9.291,9.291,0,0,0-2.566,8.969,18.636,18.636,0,0,1-1.608-9.713,19.361,19.361,0,0,1,2.436-7.735c4.57-7.967,13.622-11.08,22.368-11.08.385,0,.769,0,1.152-.011-.218.007.6,4.434.7,4.832a18.43,18.43,0,0,0,2.089,4.967,12.108,12.108,0,0,0,3.724,3.725,6.68,6.68,0,0,0,1.9.948,10.68,10.68,0,0,0,3.5.585c1.905,0,3.213-.512,4.018-1.534a5.086,5.086,0,0,0,1.167-3.359c0-2.849-1.456-5.406-4.453-7.6a15.61,15.61,0,0,0-4.237-2.264,24,24,0,0,0-7.231-1.46,12.339,12.339,0,0,1,2.559-6.134,21.821,21.821,0,0,1,4.672-4.676c.222-.146.514-.364.73-.511a29.618,29.618,0,0,1,16.215-4.966,33.49,33.49,0,0,1,11.906,2.336,91.468,91.468,0,0,1,12.414,5.991c4.164,2.409,8.547,4.965,13,7.667,12.837,7.785,27.439,15.994,42.87,15.994a16.381,16.381,0,0,0,11.613-4.234,14.382,14.382,0,0,0,2.369-18,15.8,15.8,0,0,0-9.666-6.63,15.579,15.579,0,0,0-13.264,3.008c-1.092.876-2.35,2.1-2.4,3.584a2.93,2.93,0,0,0,1.634,2.776c3.045,1.417,5.8-2.905,8.2-4.032a10.088,10.088,0,0,1,9.7.915c4.431,2.828,7.274,8.355,5.056,13.47-1.961,4.523-7.378,6.878-12.02,7.313a34.21,34.21,0,0,1-14.44-2.188c-6.058-2.153-11.7-5.551-17.263-8.809-6.774-3.97-13.158-8.635-20.063-12.3a80.728,80.728,0,0,0-13.876-5.844,52.148,52.148,0,0,0-15.775-2.336,28.871,28.871,0,0,0-8.544,1.315,27.994,27.994,0,0,0-7.888,3.724c-.146.075-.367.218-.514.292a22.594,22.594,0,0,0-5.334,5.186,14.074,14.074,0,0,0-2.843,7.085h-1.389c-10.149,0-21.41,3.936-25.936,13.73a19.729,19.729,0,0,0,.743,17.994Zm27.381-30.556a22.412,22.412,0,0,1,7.377,1.536,16.368,16.368,0,0,1,3.213,1.678c2.775,1.972,4.17,4.163,4.17,6.646a3.44,3.44,0,0,1-.879,2.336,3.16,3.16,0,0,1-2.629,1.024,8.634,8.634,0,0,1-3.875-.877,6.356,6.356,0,0,1-.727-.366,12.151,12.151,0,0,1-3.508-3.214,16.257,16.257,0,0,1-2.264-4.161,12.407,12.407,0,0,1-.879-4.456Z" transform="translate(-13.481)"/>
  </g>
</svg>
