<svg xmlns="http://www.w3.org/2000/svg" viewBox="0 0 34.166 31.665">
  <defs>
    <style>
      .cls-1 {
        fill: #f2b010;
      }
    </style>
  </defs>
  <g id="download" transform="translate(0 -17.25)">
    <g id="Group_85" data-name="Group 85" transform="translate(0 17.25)">
      <path id="Path_88" data-name="Path 88" class="cls-1" d="M33.188,228.3a.975.975,0,0,0-.979.979v8.9a4.393,4.393,0,0,1-4.387,4.387H6.345a4.393,4.393,0,0,1-4.387-4.387v-9.049a.979.979,0,1,0-1.958,0v9.049a6.352,6.352,0,0,0,6.345,6.345H27.822a6.352,6.352,0,0,0,6.345-6.345v-8.9A.979.979,0,0,0,33.188,228.3Z" transform="translate(0 -212.858)"/>
      <path id="Path_89" data-name="Path 89" class="cls-1" d="M142.742,41.142a.985.985,0,0,0,.689.29.955.955,0,0,0,.689-.29l6.221-6.221a.979.979,0,0,0-1.385-1.385l-4.546,4.554V18.229a.979.979,0,0,0-1.958,0V38.089L137.9,33.536a.979.979,0,1,0-1.385,1.385Z" transform="translate(-126.347 -17.25)"/>
    </g>
  </g>
</svg>
