<svg xmlns="http://www.w3.org/2000/svg" viewBox="0 0 62.999 62.998">
  <defs>
    <style>
      .cls-1 {
        fill: #dfc088;
      }
    </style>
  </defs>
  <g id="field" transform="translate(0.002 -0.001)">
    <path id="Path_9" data-name="Path 9" class="cls-1" d="M302.227,400.957a39.318,39.318,0,0,0-27.671,11.565,1.23,1.23,0,0,0,1.745,1.736,36.84,36.84,0,0,1,25.927-10.839,1.23,1.23,0,0,0,0-2.461Zm0,0" transform="translate(-240.46 -351.621)"/>
    <path id="Path_10" data-name="Path 10" class="cls-1" d="M185.668,387.833a1.23,1.23,0,0,0-1.708-.331,48.567,48.567,0,0,0-13.208,13.217,1.231,1.231,0,1,0,2.043,1.372,46.1,46.1,0,0,1,12.542-12.55,1.231,1.231,0,0,0,.331-1.708Zm0,0" transform="translate(-149.56 -339.637)"/>
    <path id="Path_11" data-name="Path 11" class="cls-1" d="M380.817,320.457a48.391,48.391,0,0,0-16.183,2.793,1.23,1.23,0,1,0,.821,2.32,45.939,45.939,0,0,1,15.362-2.652,1.23,1.23,0,1,0,0-2.461Zm0,0" transform="translate(-319.05 -281.026)"/>
    <path id="Path_12" data-name="Path 12" class="cls-1" d="M17.628,54.556A56.081,56.081,0,0,1,50.371,33.927h.007a54.84,54.84,0,0,1,11.389-1.2,1.23,1.23,0,0,0,0-2.461,57.9,57.9,0,0,0-10.41.946V28.555A18.223,18.223,0,0,0,58.245,14.6c0-5.432-2.609-10.521-7.348-14.331a1.231,1.231,0,0,0-1.542,0c-4.738,3.81-7.348,8.9-7.348,14.331A18.225,18.225,0,0,0,48.9,28.555v3.159A58.261,58.261,0,0,0,42,33.741v-7.2a1.226,1.226,0,0,0-.358-.867h0l-6.89-6.931a1.232,1.232,0,0,0-.873-.363H19.808a1.231,1.231,0,0,0-.872.363l-6.89,6.931h0a1.227,1.227,0,0,0-.358.868v4.7Q10.4,31,9.1,30.822V26.436A14.043,14.043,0,0,0,14.312,15.75,14.173,14.173,0,0,0,8.644,4.681a1.231,1.231,0,0,0-1.542,0A14.172,14.172,0,0,0,1.435,15.75,14.043,14.043,0,0,0,6.643,26.435v4.1q-2.691-.252-5.414-.254a1.23,1.23,0,0,0,0,2.461,55.5,55.5,0,0,1,27.946,7.542A58.085,58.085,0,0,0,23.363,44.8a48.952,48.952,0,0,0-22.134-5.35,1.23,1.23,0,0,0,0,2.461,46.452,46.452,0,0,1,20.2,4.676A58.151,58.151,0,0,0,16.2,52.381,38.489,38.489,0,0,0,1.229,49.357a1.23,1.23,0,0,0,0,2.461,36.011,36.011,0,0,1,13.435,2.6q-1.275,1.772-2.418,3.641l-1.875,3.072a1.23,1.23,0,1,0,2.1,1.282l1.875-3.072a54.624,54.624,0,0,1,3.16-4.623,1.164,1.164,0,0,0,.122-.159ZM44.468,14.6A15.7,15.7,0,0,1,50.126,2.841,15.7,15.7,0,0,1,55.784,14.6a15.317,15.317,0,0,1-4.428,10.569V15.75a1.23,1.23,0,1,0-2.461,0v9.422A15.315,15.315,0,0,1,44.468,14.6ZM3.9,15.75A11.514,11.514,0,0,1,7.873,7.262a11.513,11.513,0,0,1,3.978,8.488,11.124,11.124,0,0,1-2.747,7.2V14.766a1.23,1.23,0,0,0-2.461,0v8.188A11.124,11.124,0,0,1,3.9,15.75Zm33.913,9.556h-10.6l-4.444-4.47h10.6Zm-18-3.956,3.933,3.956H15.876Zm-5.66,6.417h11.32v7.825q-.856-.394-1.723-.76V30.7a1.231,1.231,0,0,0-1.23-1.23H17.1a1.231,1.231,0,0,0-1.23,1.23v1.463q-.858-.223-1.723-.422Zm7.137,6.094q-1.464-.539-2.953-1V31.93h2.953ZM27.929,36.8V27.767H39.537V34.7a57.75,57.75,0,0,0-6.164,2.991q-.957.537-1.892,1.112-1.745-1.066-3.551-2Zm0,0"/>
    <path id="Path_13" data-name="Path 13" class="cls-1" d="M398.628,82.461a1.232,1.232,0,1,0-.869-.361A1.239,1.239,0,0,0,398.628,82.461Zm0,0" transform="translate(-348.502 -70.156)"/>
    <path id="Path_14" data-name="Path 14" class="cls-1" d="M318.029,362.7a1.229,1.229,0,1,0,.87-.361A1.241,1.241,0,0,0,318.029,362.7Zm0,0" transform="translate(-278.583 -317.753)"/>
  </g>
</svg>
