<svg xmlns="http://www.w3.org/2000/svg" viewBox="0 0 33.005 30.903">
  <defs>
    <style>
      .cls-1 {
        fill: #dfc088;
      }
    </style>
  </defs>
  <g id="gift" transform="translate(0 -16.308)">
    <g id="Group_38" data-name="Group 38" transform="translate(2.063 32.771)">
      <g id="Group_37" data-name="Group 37">
        <path id="Path_72" data-name="Path 72" class="cls-1" d="M32,271.692v12.377a2.065,2.065,0,0,0,2.063,2.063H44.377v-14.44Z" transform="translate(-32 -271.692)"/>
      </g>
    </g>
    <g id="Group_40" data-name="Group 40" transform="translate(0 16.308)">
      <g id="Group_39" data-name="Group 39">
        <path id="Path_73" data-name="Path 73" class="cls-1" d="M30.943,24.52H24.416a8.015,8.015,0,0,0,1.151-.922,4.312,4.312,0,0,0,0-6.069,4.359,4.359,0,0,0-6.05,0c-.9.9-3.268,4.551-2.94,6.991h-.149c.326-2.44-2.046-6.094-2.94-6.991a4.363,4.363,0,0,0-6.05,0,4.317,4.317,0,0,0,0,6.069,8.163,8.163,0,0,0,1.153.922H2.063A2.066,2.066,0,0,0,0,26.582v3.094a1.032,1.032,0,0,0,1.031,1.031H14.44V26.582h4.126v4.126H31.974a1.032,1.032,0,0,0,1.031-1.031V26.582A2.065,2.065,0,0,0,30.943,24.52Zm-16.624-.068a.68.68,0,0,1-.382.068A10.143,10.143,0,0,1,8.9,22.143a2.25,2.25,0,0,1,0-3.16,2.2,2.2,0,0,1,3.125,0C13.417,20.382,14.8,23.954,14.318,24.452Zm4.749.068c-.293,0-.38-.066-.38-.068-.481-.5.9-4.07,2.292-5.469a2.222,2.222,0,0,1,3.125,3.16A10.142,10.142,0,0,1,19.067,24.52Z" transform="translate(0 -16.308)"/>
      </g>
    </g>
    <g id="Group_42" data-name="Group 42" transform="translate(18.566 32.771)">
      <g id="Group_41" data-name="Group 41">
        <path id="Path_74" data-name="Path 74" class="cls-1" d="M288,271.692v14.44h10.314a2.064,2.064,0,0,0,2.063-2.063V271.692Z" transform="translate(-288 -271.692)"/>
      </g>
    </g>
  </g>
</svg>
