<svg xmlns="http://www.w3.org/2000/svg" viewBox="0 0 42.75 57">
  <defs>
    <style>
      .cls-1 {
        fill: #dfc088;
      }
    </style>
  </defs>
  <g id="hourglass" transform="translate(-6)">
    <g id="Group_1" data-name="Group 1" transform="translate(6)">
      <path id="Path_15" data-name="Path 15" class="cls-1" d="M48.75,0H6V2.375h5.938V15.436c0,6.236,8.627,10.97,13.063,13.064-4.435,2.094-13.062,6.828-13.062,13.064V54.625H6V57H48.75V54.625H42.813V41.564c0-6.236-8.627-10.97-13.062-13.064,4.435-2.094,13.063-6.826,13.063-13.062V2.375H48.75ZM40.438,41.564V54.625H14.313V41.564c0-5.21,8.928-10.164,13.063-11.876C31.51,31.4,40.438,36.355,40.438,41.564Zm0-26.127c0,5.21-8.93,10.164-13.062,11.876C23.24,25.6,14.313,20.645,14.313,15.436V2.375H40.438Z" transform="translate(-6)"/>
    </g>
  </g>
</svg>
