<svg id="instagram-logo" xmlns="http://www.w3.org/2000/svg" viewBox="0 0 25.01 25.01">
  <defs>
    <style>
      .cls-1 {
        fill: #dfc088;
      }
    </style>
  </defs>
  <path id="Path_69" data-name="Path 69" class="cls-1" d="M18.108,0H6.9A6.91,6.91,0,0,0,0,6.9V18.108a6.91,6.91,0,0,0,6.9,6.9H18.108a6.91,6.91,0,0,0,6.9-6.9V6.9A6.91,6.91,0,0,0,18.108,0Zm4.683,18.108a4.688,4.688,0,0,1-4.683,4.683H6.9a4.688,4.688,0,0,1-4.683-4.683V6.9A4.688,4.688,0,0,1,6.9,2.219H18.108A4.688,4.688,0,0,1,22.791,6.9V18.108Z"/>
  <path id="Path_70" data-name="Path 70" class="cls-1" d="M47.413,40.97a6.444,6.444,0,1,0,6.445,6.445A6.452,6.452,0,0,0,47.413,40.97Zm0,10.67a4.225,4.225,0,1,1,4.225-4.225A4.23,4.23,0,0,1,47.413,51.64Z" transform="translate(-34.907 -34.909)"/>
  <path id="Path_71" data-name="Path 71" class="cls-1" d="M120.548,28.251a1.626,1.626,0,1,0,1.151.476A1.634,1.634,0,0,0,120.548,28.251Z" transform="translate(-101.328 -24.072)"/>
</svg>
