<svg xmlns="http://www.w3.org/2000/svg" viewBox="0 0 38.805 35.701">
  <defs>
    <style>
      .cls-1 {
        fill: #dfc088;
      }
    </style>
  </defs>
  <path id="like" class="cls-1" d="M19.287,8.307A10.149,10.149,0,0,1,28.592,2C34.2,2,38.235,6.8,38.743,12.512a10.46,10.46,0,0,1-.329,3.973,17.566,17.566,0,0,1-5.354,8.928L19.287,37.7,5.745,25.412A17.563,17.563,0,0,1,.391,16.484a10.46,10.46,0,0,1-.329-3.973C.57,6.8,4.607,2,10.213,2A9.834,9.834,0,0,1,19.287,8.307Z" transform="translate(0 -2)"/>
</svg>
