<svg xmlns="http://www.w3.org/2000/svg" viewBox="0 0 15.508 22.511">
  <defs>
    <style>
      .cls-1 {
        fill: #533;
      }
    </style>
  </defs>
  <g id="maps" transform="translate(-66.905)">
    <path id="Facebook_Places" class="cls-1" d="M82.046,5.6a7.012,7.012,0,0,0-.363-.9A7.712,7.712,0,0,0,66.9,6.983v.961c0,.04.014.4.033.58.28,2.241,2.049,4.622,3.369,6.863,1.421,2.4,2.895,4.763,4.356,7.123.9-1.541,1.8-3.1,2.678-4.6.24-.44.518-.881.758-1.3.16-.28.466-.56.605-.82,1.421-2.6,3.707-5.222,3.707-7.8V6.923A7.987,7.987,0,0,0,82.046,5.6Zm-7.43,4.822a2.752,2.752,0,0,1-2.635-1.881,2.609,2.609,0,0,1-.074-.7v-.62a2.606,2.606,0,0,1,2.8-2.561,2.834,2.834,0,0,1,2.839,2.882A2.907,2.907,0,0,1,74.616,10.425Z"/>
  </g>
</svg>
