<svg xmlns="http://www.w3.org/2000/svg" viewBox="0 0 22 16.742">
  <defs>
    <style>
      .cls-1 {
        fill: #dfc088;
      }
    </style>
  </defs>
  <g id="mail" transform="translate(0 -57.75)">
    <g id="Group_76" data-name="Group 76" transform="translate(0 57.75)">
      <path id="Path_81" data-name="Path 81" class="cls-1" d="M19.314,57.75H2.69A2.693,2.693,0,0,0,0,60.44V71.8a2.693,2.693,0,0,0,2.69,2.69H19.31A2.693,2.693,0,0,0,22,71.8V60.445A2.69,2.69,0,0,0,19.314,57.75ZM20.775,71.8a1.463,1.463,0,0,1-1.461,1.461H2.69A1.463,1.463,0,0,1,1.229,71.8V60.445A1.463,1.463,0,0,1,2.69,58.984H19.31a1.463,1.463,0,0,1,1.461,1.461V71.8Z" transform="translate(0 -57.75)"/>
      <path id="Path_82" data-name="Path 82" class="cls-1" d="M67.089,114.8l5.381-4.825a.616.616,0,1,0-.824-.915l-7.42,6.66-1.448-1.293s-.009-.009-.009-.014a.911.911,0,0,0-.1-.087l-5.89-5.271a.616.616,0,0,0-.819.92l5.444,4.866-5.421,5.076a.617.617,0,0,0-.027.869.629.629,0,0,0,.451.2.616.616,0,0,0,.419-.164l5.5-5.148,1.493,1.334a.613.613,0,0,0,.819,0l1.534-1.375,5.472,5.2a.616.616,0,0,0,.869-.023.617.617,0,0,0-.023-.869Z" transform="translate(-53.215 -106.574)"/>
    </g>
  </g>
</svg>
