<svg xmlns="http://www.w3.org/2000/svg" width="26.852" height="22.056" viewBox="0 0 26.852 22.056"><g transform="translate(-310 -14.953)"><g transform="translate(310 14.953)"><path d="M2.217,22.036A2.062,2.062,0,0,1,0,20.046,2.106,2.106,0,0,1,2.217,18H24.572a2.164,2.164,0,0,1,2.28,2.046,2.12,2.12,0,0,1-2.28,1.99Z" transform="translate(0 -18)" fill="#533"/><path d="M24.572,176a2.164,2.164,0,0,1,2.28,2.046,2.12,2.12,0,0,1-2.28,1.99H2.217A2.062,2.062,0,0,1,0,178.046,2.106,2.106,0,0,1,2.217,176Z" transform="translate(0 -167.019)" fill="#533"/><path d="M24.572,335a2.12,2.12,0,0,1,2.28,1.99,2.163,2.163,0,0,1-2.28,2.046H2.217A2.106,2.106,0,0,1,0,336.99,2.062,2.062,0,0,1,2.217,335Z" transform="translate(0 -316.98)" fill="#533"/></g></g></svg>