<?xml version="1.0" encoding="UTF-8" ?>
<!DOCTYPE svg PUBLIC "-//W3C//DTD SVG 1.1//EN" "http://www.w3.org/Graphics/SVG/1.1/DTD/svg11.dtd">
<svg width="1224pt" height="148pt" viewBox="0 0 1224 148" version="1.1" xmlns="http://www.w3.org/2000/svg">
<g id="#000000ff">
<path fill="#000000" opacity="1.00" d=" M 180.82 0.00 L 192.20 0.00 C 203.69 0.94 216.00 3.10 224.79 11.20 C 232.00 17.69 235.25 27.45 235.81 36.92 C 236.38 48.92 235.61 60.96 236.20 72.96 C 237.73 77.84 244.20 75.45 248.00 76.00 C 248.00 85.66 248.00 95.33 248.00 105.00 C 237.99 104.99 227.98 105.02 217.97 104.99 C 213.57 105.06 208.73 103.57 206.24 99.70 C 204.58 97.42 204.57 94.51 204.38 91.83 C 193.13 108.38 167.84 111.76 151.89 100.24 C 139.84 91.71 136.40 73.58 144.01 61.05 C 148.50 53.76 156.23 49.22 164.10 46.39 C 176.10 42.19 188.93 41.00 201.57 41.03 C 201.42 37.05 201.38 32.56 198.49 29.46 C 195.28 26.11 190.21 25.81 185.87 26.12 C 183.48 26.37 180.52 26.92 179.36 29.30 C 178.87 31.38 178.96 33.54 178.84 35.66 C 168.23 35.44 157.62 35.62 147.02 35.57 C 147.28 27.62 145.52 18.60 150.85 11.86 C 157.95 2.88 170.19 1.25 180.82 0.00 M 179.58 64.67 C 176.25 66.40 173.54 70.05 174.42 73.96 C 175.07 78.44 179.60 81.37 183.94 81.20 C 194.32 81.20 202.96 70.95 201.92 60.75 C 194.36 60.74 186.37 60.95 179.58 64.67 Z" />
<path fill="#000000" opacity="1.00" d=" M 582.79 0.00 L 594.19 0.00 C 605.68 0.94 618.00 3.10 626.79 11.20 C 634.54 18.17 637.64 28.84 637.93 38.98 C 638.24 50.30 637.67 61.64 638.20 72.95 C 639.72 77.84 646.20 75.45 650.00 76.00 C 650.00 85.66 650.00 95.33 650.00 105.00 C 640.00 104.99 630.00 105.02 620.00 104.99 C 615.57 105.06 610.71 103.57 608.21 99.67 C 606.58 97.39 606.56 94.50 606.40 91.83 C 594.97 108.60 569.11 111.87 553.22 99.74 C 541.67 91.01 538.55 73.27 546.05 60.99 C 550.55 53.73 558.27 49.21 566.12 46.38 C 578.11 42.19 590.93 41.00 603.57 41.03 C 603.54 36.22 603.03 30.23 598.23 27.71 C 593.67 25.55 587.97 25.34 583.32 27.32 C 580.15 28.80 581.17 32.78 580.95 35.57 C 570.30 35.56 559.66 35.56 549.02 35.57 C 549.24 27.42 547.48 18.03 553.30 11.30 C 560.52 2.79 572.37 1.24 582.79 0.00 M 581.57 64.68 C 578.27 66.40 575.57 70.00 576.40 73.88 C 577.02 78.44 581.64 81.41 586.04 81.20 C 596.38 81.13 604.96 70.92 603.92 60.75 C 596.36 60.74 588.36 60.95 581.57 64.68 Z" />
<path fill="#000000" opacity="1.00" d=" M 0.50 2.00 C 32.66 1.99 64.82 2.01 96.98 1.99 C 100.82 1.97 105.00 2.41 108.04 4.99 C 111.16 7.69 111.96 12.06 111.99 15.99 C 112.03 34.33 111.97 52.66 112.01 71.00 C 111.83 73.02 112.76 75.43 114.99 75.81 C 117.97 76.19 120.99 75.95 124.00 76.00 C 124.00 85.66 124.00 95.33 124.00 105.00 C 113.34 105.00 102.68 105.00 92.02 105.01 C 88.01 105.01 83.55 104.34 80.69 101.26 C 77.95 98.24 77.48 93.94 77.49 90.04 C 77.49 72.02 77.52 54.01 77.48 35.99 C 77.74 33.78 76.44 31.23 74.01 31.12 C 65.01 30.83 56.00 31.09 47.00 31.00 C 46.99 55.67 47.01 80.33 47.00 105.00 C 35.48 104.94 23.95 105.13 12.43 104.90 C 12.58 80.27 12.47 55.63 12.49 31.00 C 8.49 31.00 4.50 31.00 0.51 31.00 C 0.49 21.33 0.50 11.67 0.50 2.00 Z" />
<path fill="#000000" opacity="1.00" d=" M 261.45 2.08 C 271.94 1.89 282.43 2.06 292.92 1.99 C 296.78 1.97 301.00 2.40 304.06 5.00 C 307.16 7.70 307.96 12.07 307.99 15.99 C 308.03 23.66 307.98 31.33 308.00 39.00 C 318.50 39.00 328.99 39.00 339.49 39.00 C 339.48 26.69 339.55 14.39 339.45 2.08 C 350.96 1.90 362.48 2.05 374.00 2.00 C 374.02 25.01 373.97 48.02 374.02 71.03 C 373.83 73.05 374.79 75.46 377.02 75.81 C 380.00 76.18 383.01 75.96 386.00 76.00 C 386.00 85.66 386.00 95.33 386.00 105.00 C 375.32 105.00 364.65 105.00 353.97 105.00 C 349.98 105.01 345.53 104.33 342.68 101.26 C 339.92 98.21 339.49 93.89 339.49 89.96 C 339.52 82.33 339.46 74.69 339.53 67.06 C 329.02 66.92 318.51 67.03 308.00 67.00 C 307.99 79.67 308.01 92.33 308.00 105.00 C 296.49 104.98 284.98 105.06 273.47 104.95 C 273.52 81.98 273.50 59.00 273.48 36.02 C 273.60 34.13 272.91 31.84 270.87 31.29 C 267.77 30.73 264.57 31.13 261.44 30.91 C 261.54 21.30 261.52 11.69 261.45 2.08 Z" />
<path fill="#000000" opacity="1.00" d=" M 416.82 2.01 C 443.87 1.99 470.92 2.01 497.97 1.99 C 501.95 1.99 506.38 2.64 509.26 5.68 C 512.06 8.71 512.51 13.06 512.51 17.01 C 512.43 36.98 512.31 56.96 512.24 76.93 C 516.00 77.02 520.23 77.07 523.21 79.74 C 526.34 82.51 526.93 86.98 527.00 90.93 C 527.00 103.62 527.00 116.31 527.00 129.00 C 516.66 129.00 506.33 129.00 496.00 129.00 C 495.93 122.27 496.13 115.55 495.92 108.83 C 495.96 106.77 494.19 104.83 492.07 105.04 C 473.68 104.98 455.29 104.97 436.91 105.04 C 434.75 104.85 433.01 106.84 433.08 108.91 C 432.87 115.60 433.07 122.30 433.00 129.00 C 422.66 129.00 412.33 129.00 402.00 129.00 C 402.00 116.35 402.00 103.70 402.00 91.05 C 402.06 87.09 402.62 82.59 405.74 79.78 C 408.78 77.04 413.13 76.97 416.99 76.97 C 427.73 64.31 427.89 46.73 428.01 31.01 C 424.27 31.00 420.54 31.00 416.82 30.99 C 416.81 21.33 416.81 11.67 416.82 2.01 M 460.42 31.13 C 460.62 46.82 460.05 64.26 449.66 77.01 C 459.10 76.99 468.55 77.01 478.00 77.00 C 477.99 63.33 478.02 49.66 477.99 36.00 C 478.17 33.97 477.18 31.59 474.98 31.19 C 470.14 30.80 465.27 30.98 460.42 31.13 Z" />
<path fill="#000000" opacity="1.00" d=" M 817.52 2.74 C 831.67 0.53 846.73 3.30 858.73 11.25 C 868.00 17.31 875.26 26.43 878.87 36.92 C 884.05 51.89 882.27 69.24 873.64 82.58 C 866.85 93.22 856.00 101.04 843.92 104.57 C 828.00 109.26 809.98 107.17 795.98 98.08 C 785.93 91.64 778.25 81.59 774.81 70.14 C 770.27 55.20 772.34 38.14 781.23 25.17 C 789.43 12.97 803.07 4.92 817.52 2.74 M 819.42 19.62 C 812.67 21.08 806.33 24.53 801.59 29.57 C 789.83 41.78 788.93 62.43 798.87 76.00 C 803.88 82.97 811.62 87.85 820.03 89.50 C 833.00 92.21 847.39 86.99 855.11 76.11 C 865.76 61.59 863.94 38.94 849.97 27.18 C 841.73 20.01 830.04 17.32 819.42 19.62 Z" />
<path fill="#000000" opacity="1.00" d=" M 947.23 3.19 C 959.47 0.44 973.12 2.25 983.40 9.74 C 994.71 17.86 1000.66 31.57 1002.20 45.09 C 1004.10 60.98 1001.45 78.31 991.15 91.04 C 978.90 106.63 955.15 111.63 937.66 102.32 C 932.54 99.59 928.34 95.41 925.09 90.64 C 925.96 108.74 925.29 126.88 925.49 145.00 C 918.99 145.00 912.50 145.00 906.00 145.00 C 905.98 104.99 906.03 64.99 905.98 24.98 C 906.13 23.12 905.07 21.00 903.06 20.73 C 899.86 20.38 896.64 20.62 893.44 20.56 C 893.42 15.07 893.45 9.58 893.42 4.09 C 899.96 4.05 906.50 4.02 913.04 4.09 C 916.56 4.20 920.59 5.13 922.63 8.30 C 924.82 11.82 923.84 16.19 923.96 20.10 C 928.95 11.54 937.59 5.38 947.23 3.19 M 951.07 19.19 C 943.32 19.90 935.89 23.98 931.45 30.43 C 925.88 38.41 924.53 48.55 925.03 58.06 C 925.77 68.42 929.86 79.24 938.46 85.58 C 948.40 92.93 963.39 91.71 972.28 83.22 C 979.94 76.07 982.95 65.22 982.96 55.01 C 983.03 44.92 980.40 34.19 973.18 26.79 C 967.55 20.91 959.07 18.30 951.07 19.19 Z" />
<path fill="#000000" opacity="1.00" d=" M 1138.85 18.85 C 1155.27 1.05 1183.80 -2.64 1205.19 7.78 C 1210.44 10.44 1215.24 15.01 1216.24 21.04 C 1216.78 25.46 1216.38 29.93 1216.50 34.37 C 1210.66 34.38 1204.83 34.38 1199.01 34.37 C 1198.85 30.92 1199.77 26.75 1196.91 24.11 C 1193.19 20.54 1187.89 19.34 1182.93 18.74 C 1170.34 17.52 1157.02 23.42 1150.42 34.40 C 1142.85 46.96 1143.06 64.27 1151.90 76.15 C 1159.02 85.68 1171.32 90.32 1183.00 89.69 C 1194.21 89.21 1204.67 83.69 1212.63 75.98 C 1215.26 80.59 1218.08 85.10 1220.75 89.69 C 1200.73 111.50 1162.85 113.03 1141.27 92.72 C 1121.12 73.97 1120.15 38.93 1138.85 18.85 Z" />
<path fill="#000000" opacity="1.00" d=" M 661.94 4.07 C 678.30 4.05 694.66 4.06 711.02 4.06 C 721.12 3.80 732.03 4.33 740.58 10.36 C 752.67 18.60 753.32 38.81 741.91 47.90 C 740.00 49.44 737.81 50.54 735.65 51.67 C 741.58 53.04 747.20 56.30 750.64 61.43 C 755.74 68.80 756.17 78.73 753.03 86.97 C 750.14 94.41 743.35 99.69 735.94 102.18 C 727.31 105.34 718.00 105.04 708.97 105.00 C 701.30 104.98 693.63 105.03 685.97 104.99 C 682.80 104.96 679.23 104.61 676.93 102.17 C 674.65 99.73 674.52 96.20 674.50 93.05 C 674.49 68.89 674.51 44.72 674.49 20.56 C 670.33 20.57 666.18 20.54 662.03 20.60 C 661.84 15.09 661.97 9.58 661.94 4.07 M 694.00 17.57 C 694.00 27.05 694.00 36.52 694.00 46.00 C 701.05 45.94 708.10 46.14 715.15 45.89 C 720.64 45.65 726.67 43.29 729.10 38.01 C 731.46 32.73 730.99 25.60 726.43 21.62 C 722.75 18.45 717.69 17.68 713.00 17.58 C 706.66 17.53 700.33 17.58 694.00 17.57 M 694.00 59.00 C 693.99 67.99 694.01 76.98 693.99 85.97 C 693.93 87.76 694.08 90.02 695.97 90.87 C 699.24 91.53 702.64 91.05 705.97 91.18 C 713.39 91.05 721.41 92.07 728.14 88.21 C 737.20 83.29 737.71 68.43 729.19 62.74 C 724.78 59.70 719.24 59.03 714.01 59.00 C 707.34 58.99 700.67 59.00 694.00 59.00 Z" />
<path fill="#000000" opacity="1.00" d=" M 1015.42 4.09 C 1021.95 4.04 1028.48 4.06 1035.02 4.06 C 1038.45 4.07 1042.31 4.66 1044.75 7.34 C 1047.11 9.95 1047.45 13.67 1047.50 17.03 C 1047.52 25.85 1047.48 34.67 1047.51 43.50 C 1053.57 43.16 1061.17 44.95 1065.71 39.79 C 1074.24 27.99 1082.24 15.80 1090.77 3.99 C 1098.01 4.15 1105.26 4.01 1112.50 4.07 C 1104.64 15.37 1096.75 26.66 1088.87 37.96 C 1085.33 42.81 1082.35 48.42 1077.04 51.62 C 1080.44 53.61 1083.11 56.60 1085.07 59.99 C 1089.78 67.94 1094.47 75.91 1099.18 83.87 C 1101.84 89.83 1109.11 88.20 1114.34 88.49 C 1114.28 93.97 1114.33 99.45 1114.31 104.94 C 1107.84 104.82 1101.36 105.23 1094.92 104.68 C 1090.61 104.41 1086.86 101.69 1084.81 97.97 C 1078.18 86.65 1071.87 75.14 1065.23 63.82 C 1061.29 58.09 1053.35 60.56 1047.51 60.00 C 1047.50 74.97 1047.48 89.93 1047.52 104.90 C 1041.01 104.99 1034.51 104.92 1028.01 104.94 C 1027.97 78.28 1028.04 51.62 1027.98 24.96 C 1028.13 23.07 1027.02 20.93 1024.97 20.72 C 1021.80 20.39 1018.61 20.62 1015.44 20.56 C 1015.42 15.07 1015.45 9.58 1015.42 4.09 Z" />
</g>
</svg>
