<svg xmlns="http://www.w3.org/2000/svg" viewBox="0 0 39.272 35.25">
  <defs>
    <style>
      .cls-1 {
        fill: #dfc088;
      }
    </style>
  </defs>
  <g id="party" transform="translate(0 -23.889)">
    <g id="icons_24_" transform="translate(0 23.889)">
      <g id="Group_45" data-name="Group 45">
        <g id="Group_43" data-name="Group 43">
          <path id="Path_75" data-name="Path 75" class="cls-1" d="M73.009,46.816h.01a3.274,3.274,0,0,0-1.06-6.462h-.01a3.274,3.274,0,0,0,1.06,6.462Z" transform="translate(-63.43 -38.935)"/>
          <path id="Path_76" data-name="Path 76" class="cls-1" d="M21.607,51.1l-6.329-6.414c-.434-.52-1.606-7.9-1.657-8.2a2.418,2.418,0,0,1,.094-1.283s3.181-8.172,3.5-9.071.3-1.488-.317-1.935-1.683-.46-1.935.317L11.559,32.69a4.188,4.188,0,0,0-1.828-.176l-.024,0-.024,0a4.19,4.19,0,0,0-1.676.751L2.166,26.614a1.22,1.22,0,0,0-1.935.317,1.531,1.531,0,0,0,.317,1.935l6.218,7.477a2.419,2.419,0,0,1,.5,1.186L8.5,45.067l.821,12.618a1.555,1.555,0,0,0,1.55,1.454c.034,0,.068,0,.1,0a1.555,1.555,0,0,0,1.451-1.653s-.74-10.972-.74-11.375c0-.248.241-.389.526-.1l7.182,7.278A1.555,1.555,0,1,0,21.607,51.1Z" transform="translate(0 -23.889)"/>
        </g>
        <g id="Group_44" data-name="Group 44" transform="translate(16.103 5.144)">
          <path id="Path_77" data-name="Path 77" class="cls-1" d="M323.143,99.787h.007l.033.01.033.013h.007A2.548,2.548,0,0,0,324.877,95h-.008l-.033-.01-.033-.013H324.8a2.548,2.548,0,0,0-1.652,4.82Z" transform="translate(-310.503 -94.015)"/>
          <path id="Path_78" data-name="Path 78" class="cls-1" d="M214.4,91.823c-.134-.581-.7-.834-1.715-.622l-7.638.822a3.754,3.754,0,0,0-2.722-.933L196.8,85.754c-.674-.792-1.274-.937-1.736-.561a1.163,1.163,0,0,0-.333,1.574c.491.61,5.437,5.68,5.616,5.97s.106.411-.095,1c-.085.249-1.4,3.912-1.9,5.27l-6.53,4.4a1.244,1.244,0,1,0,1.39,2.063s6.887-4.628,7.054-4.753.39-.047.315.191l-2.955,9.334a1.244,1.244,0,1,0,2.372.751l3.251-10.267a1.255,1.255,0,0,0,.033-.131l1.786-5.209c.2-.585.217-.726.537-.845s7.336-1.089,8.1-1.269A1.164,1.164,0,0,0,214.4,91.823Z" transform="translate(-191.272 -84.995)"/>
        </g>
      </g>
    </g>
  </g>
</svg>
