<svg xmlns="http://www.w3.org/2000/svg" viewBox="0 0 61.75 61.75">
  <defs>
    <style>
      .cls-1 {
        fill: #dfc088;
      }
    </style>
  </defs>
  <g id="quality" transform="translate(-0.001)">
    <g id="Group_9" data-name="Group 9" transform="translate(0.001 11.096)">
      <g id="Group_8" data-name="Group 8">
        <path id="Path_19" data-name="Path 19" class="cls-1" d="M58.133,115.518a5.433,5.433,0,0,0-5.427-5.427h-8.06a44,44,0,0,0,1.98-8.336A8.492,8.492,0,0,0,38.233,92a1.809,1.809,0,0,0-1.809,1.809c0,4.37-2.512,10.968-5.443,12.438A79.189,79.189,0,0,1,19.9,110.091H1.81A1.809,1.809,0,0,0,0,111.9v25.327a1.809,1.809,0,0,0,1.809,1.809H7.237v1.809a1.809,1.809,0,0,0,1.809,1.809h7.478a5.434,5.434,0,0,0,4.96-3.227L34.176,142.6a1.812,1.812,0,0,0,.439.054H45.469a5.428,5.428,0,0,0,5.046-7.427,5.428,5.428,0,0,0,3.618-7.236,5.425,5.425,0,0,0,2.614-8.855A5.406,5.406,0,0,0,58.133,115.518Zm-50.9,19.9H3.619V113.709H7.237Zm11.1,1.809a1.811,1.811,0,0,1-1.809,1.809H10.855V113.709h7.478Zm23.518-16.282H52.705a1.809,1.809,0,1,1,0,3.618H41.851a1.809,1.809,0,0,0,0,3.618h7.236a1.809,1.809,0,1,1,0,3.618H41.851a1.809,1.809,0,0,0,0,3.618h3.618a1.809,1.809,0,1,1,0,3.618H34.837l-12.886-3.221V113.272A74.142,74.142,0,0,0,32.6,109.481c4.155-2.083,6.7-8.671,7.3-13.567a4.878,4.878,0,0,1,3.143,5.307c-.857,5.747-1.932,8.106-2.814,9.87a1.809,1.809,0,0,0,1.618,2.618H52.705a1.809,1.809,0,1,1,0,3.618H41.851a1.809,1.809,0,0,0,0,3.618Z" transform="translate(-0.001 -92)"/>
      </g>
    </g>
    <g id="Group_11" data-name="Group 11" transform="translate(38.233)">
      <g id="Group_10" data-name="Group 10">
        <path id="Path_20" data-name="Path 20" class="cls-1" d="M318.809,0A1.809,1.809,0,0,0,317,1.809V5.668a1.809,1.809,0,0,0,3.618,0V1.809A1.809,1.809,0,0,0,318.809,0Z" transform="translate(-317)"/>
      </g>
    </g>
    <g id="Group_13" data-name="Group 13" transform="translate(24.161 6.07)">
      <g id="Group_12" data-name="Group 12">
        <path id="Path_21" data-name="Path 21" class="cls-1" d="M205.974,53.416l-2.558-2.558a1.809,1.809,0,0,0-2.558,2.558l2.558,2.558a1.809,1.809,0,0,0,2.558-2.558Z" transform="translate(-200.328 -50.327)"/>
      </g>
    </g>
    <g id="Group_15" data-name="Group 15" transform="translate(18.333 20.141)">
      <g id="Group_14" data-name="Group 14">
        <path id="Path_22" data-name="Path 22" class="cls-1" d="M157.426,167h-3.618a1.809,1.809,0,1,0,0,3.618h3.618a1.809,1.809,0,0,0,0-3.618Z" transform="translate(-151.999 -167)"/>
      </g>
    </g>
    <g id="Group_17" data-name="Group 17" transform="translate(54.515 20.141)">
      <g id="Group_16" data-name="Group 16">
        <path id="Path_23" data-name="Path 23" class="cls-1" d="M457.427,167h-3.618a1.809,1.809,0,0,0,0,3.618h3.618a1.809,1.809,0,1,0,0-3.618Z" transform="translate(-452 -167)"/>
      </g>
    </g>
    <g id="Group_19" data-name="Group 19" transform="translate(49.746 6.07)">
      <g id="Group_18" data-name="Group 18">
        <path id="Path_24" data-name="Path 24" class="cls-1" d="M418.106,50.857a1.809,1.809,0,0,0-2.558,0l-2.558,2.558a1.809,1.809,0,1,0,2.558,2.558l2.558-2.558A1.809,1.809,0,0,0,418.106,50.857Z" transform="translate(-412.459 -50.327)"/>
      </g>
    </g>
  </g>
</svg>
