<svg xmlns="http://www.w3.org/2000/svg" viewBox="0 0 34.723 19.811">
  <defs>
    <style>
      .cls-1 {
        fill: #533;
      }
    </style>
  </defs>
  <g id="vk-social-network-logo" transform="translate(0 -117.748)">
    <path id="Path_68" data-name="Path 68" class="cls-1" d="M34.539,135.64a2.38,2.38,0,0,0-.118-.226,18,18,0,0,0-3.453-4l-.036-.036-.018-.018-.018-.018h-.018q-1.157-1.1-1.464-1.483a1.392,1.392,0,0,1-.254-1.465,13.651,13.651,0,0,1,1.627-2.368q.742-.958,1.175-1.537,3.128-4.158,2.712-5.315l-.108-.18a1.057,1.057,0,0,0-.56-.3,2.847,2.847,0,0,0-1.157-.045l-5.207.036a.676.676,0,0,0-.362.009l-.235.054-.091.045-.072.054a.8.8,0,0,0-.2.19,1.241,1.241,0,0,0-.18.316,29.521,29.521,0,0,1-1.935,4.068q-.669,1.121-1.23,1.944a9.351,9.351,0,0,1-.94,1.211,6.556,6.556,0,0,1-.687.624q-.307.235-.47.2c-.109-.024-.211-.048-.308-.072a1.2,1.2,0,0,1-.407-.443,1.984,1.984,0,0,1-.208-.705q-.054-.425-.063-.732t.009-.868q.019-.561.018-.759,0-.687.027-1.492t.045-1.274q.018-.47.018-.994a4.178,4.178,0,0,0-.063-.823,2.814,2.814,0,0,0-.189-.579.974.974,0,0,0-.371-.434,2.089,2.089,0,0,0-.606-.244,12.029,12.029,0,0,0-2.441-.235,11.86,11.86,0,0,0-4.321.434,2.436,2.436,0,0,0-.687.542q-.326.4-.091.434a2.216,2.216,0,0,1,1.537.777l.109.217a3.458,3.458,0,0,1,.253.832,8.39,8.39,0,0,1,.163,1.319,14.073,14.073,0,0,1,0,2.26q-.091.94-.172,1.464a2.932,2.932,0,0,1-.244.85,3.583,3.583,0,0,1-.217.4.311.311,0,0,1-.09.09,1.354,1.354,0,0,1-.488.091,1.146,1.146,0,0,1-.615-.253,4.337,4.337,0,0,1-.75-.7,9.305,9.305,0,0,1-.877-1.238q-.488-.8-1.012-1.88l-.289-.524q-.271-.506-.741-1.473t-.832-1.871a1.192,1.192,0,0,0-.434-.578l-.09-.054a1.238,1.238,0,0,0-.289-.154,1.918,1.918,0,0,0-.416-.117l-4.954.036A1.259,1.259,0,0,0,.127,119l-.072.108A.585.585,0,0,0,0,119.4a1.439,1.439,0,0,0,.109.488q1.085,2.549,2.359,4.918t2.215,3.814q.94,1.447,1.916,2.73t1.293,1.645q.317.362.5.542l.452.434a10.724,10.724,0,0,0,1.274,1.04,21.742,21.742,0,0,0,1.862,1.194,10.1,10.1,0,0,0,2.378.958,8.22,8.22,0,0,0,2.64.3h2.079a1.44,1.44,0,0,0,.958-.4l.072-.091a1.2,1.2,0,0,0,.135-.334,1.837,1.837,0,0,0,.063-.5,5.957,5.957,0,0,1,.117-1.4,3.683,3.683,0,0,1,.308-.94,2.311,2.311,0,0,1,.389-.533,1.571,1.571,0,0,1,.308-.262,1.179,1.179,0,0,1,.144-.063,1.148,1.148,0,0,1,1.022.28,6,6,0,0,1,1.1,1.049q.515.624,1.238,1.4a8.508,8.508,0,0,0,1.266,1.157l.361.217a4.4,4.4,0,0,0,.941.4,2.027,2.027,0,0,0,1.012.09l4.628-.072a2.1,2.1,0,0,0,1.067-.226.9.9,0,0,0,.452-.5,1.4,1.4,0,0,0,.009-.615A2.269,2.269,0,0,0,34.539,135.64Z"/>
  </g>
</svg>
