<svg xmlns="http://www.w3.org/2000/svg" viewBox="0 0 282.279 44.89">
  <defs>
    <style>
      .cls-1 {
        fill: #533;
      }
    </style>
  </defs>
  <g id="logog-vector" transform="translate(-3.6 -8.011)">
    <path id="Path_1" data-name="Path 1" class="cls-1" d="M3.6,51.912c.237-1.278.331-2.6,2.083-2.793.189,0,.379-.521.473-.852a33.277,33.277,0,0,1,1.136-3.693,24.135,24.135,0,0,1,1.989-3.267c-.521-.426-1.089-.8-1.61-1.278a7.078,7.078,0,0,1-2.32-7.67,6.477,6.477,0,0,1,6.486-4.593A20.668,20.668,0,0,1,18.182,29c1.089.379,1.941,1.657,2.7,2.651a1.657,1.657,0,0,1-.237,1.61c-.284.284-1.089.142-1.61-.047-1.231-.426-2.415-1.326-3.6-1.326a6.008,6.008,0,0,0-3.6,1.42,3.21,3.21,0,0,0-.426,4.119,2.653,2.653,0,0,0,3.551,1.089,21.418,21.418,0,0,0,3.267-1.7c2.935-1.846,5.681-4.072,8.806-5.587,5.4-2.6,10.842-2.793,15.813,1.184a4.984,4.984,0,0,0,.568.047c.379-4.024.758-8.049,1.089-12.12.095-.994.095-1.989.189-3.03.473-4.214.284-5.066-2.367-8.759,3.693,0,7.291-.047,10.842.047.426,0,.994.71,1.231,1.184,1.894,4.261,3.693,8.57,5.539,12.878.237.568.521,1.136.994,2.083,2.651-5.161,5.161-9.9,7.481-14.724A2.216,2.216,0,0,1,70.783,8.5c2.841.095,5.681.047,8.475.047.095.189.189.331.142.379-2.415,3.693-2.178,7.812-1.846,11.884.758,8.759,1.7,17.518,2.7,26.277a32.9,32.9,0,0,0,1.657,5.634H69.884c3.03-7.339.284-14.724,0-22.11-.095-2.415-.473-4.782-.8-7.67-4.593,4.687-8.854,8.948-9.99,15.2a11.293,11.293,0,0,0,.331,3.172c.473-.331.663-.379.663-.426.379-1.846,1.373-2.983,3.314-3.077a3.971,3.971,0,0,1,3.788,2.7,5.019,5.019,0,0,1-1.373,5.681c-3.172,2.651-8.806,1.136-9.848-2.888a16.333,16.333,0,0,1,.237-6.581,5.219,5.219,0,0,0-.331-3.5c-1.373-2.651-2.6-5.4-3.93-8.049-.142.047-.284.047-.473.095l-.426,6.25c-.331,4.593-.758,9.185-.9,13.825a69.617,69.617,0,0,0,.71,7.528H39.441c.379-.852.758-1.7,1.184-2.7-2.888.852-5.634,1.657-8.38,2.462-.568-1.989-.331-2.841,1.7-3.219,4.971-.9,7.149-4.45,6.3-9.753-.71-4.545-4.166-7.149-8.9-6.676a11.041,11.041,0,0,0-8.617,4.64c-1.42,1.988-1.231,4.261.521,5.3a3.611,3.611,0,0,0,2.935.379c.663-.284.947-1.562,1.278-2.462a5.164,5.164,0,0,0,.047-1.515c.71-.189,1.42-.379,2.509-.71a42.1,42.1,0,0,1-.047,6.013c-.473,3.22-2.509,4.545-5.729,3.93a41.3,41.3,0,0,1-4.308-1.278c-4.356,5.35-10.321,5.019-16.239,4.971A.451.451,0,0,1,3.6,51.912ZM18.23,40.786a11.914,11.914,0,0,0-6.392,8A6.825,6.825,0,0,0,18.23,40.786Z" transform="translate(0 -0.254)"/>
    <path id="Path_2" data-name="Path 2" class="cls-1" d="M512.192,41.29c.994,2.651,1.846,5.113,2.793,7.575a1.172,1.172,0,0,0,.71.71c1.846.284,1.8,1.515,1.515,3.077-4.5.095-8.948-.047-13.02-2.32a3,3,0,0,1-1.136-.852c-1.136-2.036-2.509-1.8-4.5-1.089-4.829,1.752-7.433-.189-7.575-5.255-.047-1.278.142-2.557.237-4.119.947.237,1.7.473,2.509.663a3.968,3.968,0,0,0,0,.758c.284,1.089.331,2.509,1.042,3.077.615.473,2.13.189,3.03-.284a2.509,2.509,0,0,0,1.326-3.314,14.173,14.173,0,0,0-3.409-4.545,10.785,10.785,0,0,0-8.238-2.131c-4.072.568-6.486,3.5-6.77,7.859-.237,4.5,1.61,7.244,5.729,8.38.521.142,1.042.237,1.562.379a1.41,1.41,0,0,1,1.089,1.326v1.468a23.226,23.226,0,0,1-10.653-3.977c-1.278,3.646-4.5,3.835-7.481,3.93-6.865.189-13.73.189-20.548.047-4.971-.095-6.865-2.083-7.1-7.149-.142-3.125-.095-6.25.047-9.422.237-6.723.615-13.493.947-20.217.047-.758.237-1.515.331-2.273.758-4.308,1.847-5.35,6.155-5.539,2.509-.095,5.066,0,7.859,0-.71,2.462-1.326,4.782-2.083,7.1-.095.284-.71.521-1.089.568a2.38,2.38,0,0,0-2.32,2.462c-.331,7.623-.615,15.245-.8,22.868a2.563,2.563,0,0,0,2.7,2.888c3.882.047,7.812.237,11.694.047,2.415-.095,3.03-.994,3.125-3.456.095-2.225.095-4.5,0-6.723-.189-4.782-.379-9.564-.758-14.346-.237-3.172-.947-3.646-4.166-3.74h-1.42c-3.835,0-3.882-.047-4.971,3.74-.663,2.367-1.136,4.829-1.562,7.244a7.608,7.608,0,0,0,.284,2.367,8.4,8.4,0,0,0,.852-.568c2.036-1.752,4.356-1.7,5.918.189a4.374,4.374,0,0,1-.521,6.2,5.594,5.594,0,0,1-5.823.994,4.728,4.728,0,0,1-3.409-4.545,32.321,32.321,0,0,1,1.136-8c1.468-4.782,3.314-9.469,5.066-14.2a1.92,1.92,0,0,1,1.278-1.089q5.752,0,11.5.284a3.868,3.868,0,0,1,3.882,3.5c.473,3.219.852,6.439,1.089,9.658.237,3.456.284,6.912.379,10.416a40.323,40.323,0,0,1,5.161-1.846,13.817,13.817,0,0,1,9.99,1.326c3.172,1.752,6.155,3.93,9.28,5.871a13.662,13.662,0,0,0,3.456,1.657,2.558,2.558,0,0,0,3.314-1.326,3.608,3.608,0,0,0-.758-4.261,4.37,4.37,0,0,0-5.255-.663c-.9.426-1.752.994-2.6,1.468-1.563-.568-1.468-1.562-.71-2.793,2.7-4.45,11.978-4.45,14.677-.047a6.894,6.894,0,0,1-1.515,8.854A12.665,12.665,0,0,1,512.192,41.29Zm-9.28-.142c-.474,4.4,2.746,8.191,6.392,7.765A11.879,11.879,0,0,0,502.912,41.148Z" transform="translate(-231.479 0)"/>
    <path id="Path_3" data-name="Path 3" class="cls-1" d="M194.24,8.126c-.663,2.415-1.278,4.64-1.941,6.818a1.483,1.483,0,0,1-1.136.8,2.425,2.425,0,0,0-2.367,2.6c-.331,5.255-.663,10.511-.9,15.766-.095,2.131-.142,4.261-.047,6.392.095,2.557.758,3.409,3.219,3.551,3.882.142,7.812.047,11.694-.047a2.567,2.567,0,0,0,2.6-2.6,11.057,11.057,0,0,0,.189-1.231c-.331-7.2-.615-14.393-.994-21.59-.095-1.752-1.089-2.557-2.888-2.746-6.25-.568-6.534-.426-8.143,5.587a42.364,42.364,0,0,0-.994,4.877,14.159,14.159,0,0,0,.284,2.935c.521-.426.71-.521.852-.663,1.988-1.7,4.214-1.7,5.823.095a4.407,4.407,0,0,1-.331,6.2,5.582,5.582,0,0,1-6.155.994,5.12,5.12,0,0,1-3.314-5.208,29.074,29.074,0,0,1,1.278-7.291c1.515-4.782,3.314-9.469,5.066-14.2a1.92,1.92,0,0,1,1.278-1.089q5.752,0,11.5.284a3.755,3.755,0,0,1,3.788,3.362,75.271,75.271,0,0,1,1.136,8.617c.379,7.481.615,15.009.8,22.536a27.9,27.9,0,0,1-.568,5.255,4.585,4.585,0,0,1-4.119,4.024,53.361,53.361,0,0,1-6.676.758c-5.729.047-11.458-.047-17.186-.237-5.019-.189-6.865-1.894-7.1-6.912-.189-4.356-.047-8.759.142-13.115.237-6.108.615-12.168.994-18.228a7.015,7.015,0,0,1,.142-.9c.852-4.261,1.941-5.208,6.3-5.4,2.178-.095,4.356-.047,6.581-.047A5.383,5.383,0,0,1,194.24,8.126Z" transform="translate(-92.257 -0.025)"/>
    <path id="Path_4" data-name="Path 4" class="cls-1" d="M371.023,26.192c-1.61,2.6-4.119,4.308-4.024,7.1,1.7-.095,3.219-.568,4.5-.189.9.284,1.7,1.657,1.988,2.7a4.5,4.5,0,0,1-1.846,5.161,5.3,5.3,0,0,1-5.871.047c-.379-.237-.758-.568-1.468-1.136.237,4.687-.852,9.09,1.941,13.3H353.647c2.651-4.687,1.752-9.753,1.846-14.724.095-6.865,0-13.73.047-20.6,0-2.983-.142-5.918-1.941-8.712H366c-3.03,6.25-1.042,12.925-1.326,19.506a4.413,4.413,0,0,0,.615-.71c2.367-4.024,4.735-8.049,7.149-12.073,1.278-2.131,2.083-4.308.047-6.77h12.973a5.909,5.909,0,0,1-.8.758c-.8.663-1.7,1.278-2.509,1.989-4.545,4.166-4.877,5.113-2.6,10.747,3.5,8.664,7.1,17.281,10.7,25.9.663,1.562,1.562,2.983,2.462,4.64H379.4c1.136-3.882-.284-7.339-1.562-10.747-1.894-5.113-4.072-10.085-6.108-15.1C371.544,27,371.355,26.76,371.023,26.192Z" transform="translate(-184.291 -0.573)"/>
    <path id="Path_5" data-name="Path 5" class="cls-1" d="M265.2,8.8h12.547c-3.125,6.344-1.136,13.02-1.894,19.506.189.047.379.142.521.189.284-.426.615-.9.9-1.326,2.036-3.456,4.119-6.912,6.108-10.416,1.42-2.462,3.077-4.924.71-7.954h12.973c-1.468,1.278-2.935,2.509-4.356,3.788-2.793,2.557-3.788,5.208-1.989,9.138,3.835,8.427,7.1,17.139,10.7,25.709.758,1.846,1.847,3.551,2.841,5.445H291.571c-.331-2.557-.284-5.161-1.089-7.481-2.273-6.439-4.877-12.783-7.481-19.6-1.941,2.6-4.214,4.45-4.356,7.575.379.095.521.189.568.142,2.462-1.61,4.166-1.373,5.4.663a4.9,4.9,0,0,1-1.8,6.77c-2.415,1.231-4.592.663-6.818-1.42,0,4.687-.758,9.09,1.846,13.3H265.2c2.131-3.03,1.894-6.486,1.894-9.9V17.559C267.189,14.623,267.141,11.688,265.2,8.8Z" transform="translate(-137.744 -0.415)"/>
  </g>
</svg>
