<?xml version="1.0" standalone="no"?>
<!DOCTYPE svg PUBLIC "-//W3C//DTD SVG 20010904//EN"
 "http://www.w3.org/TR/2001/REC-SVG-20010904/DTD/svg10.dtd">
<svg version="1.0" xmlns="http://www.w3.org/2000/svg"
 width="260.000000pt" height="260.000000pt" viewBox="0 0 260.000000 260.000000"
 preserveAspectRatio="xMidYMid meet">
<metadata>
Created by potrace 1.11, written by Peter Selinger 2001-2013
</metadata>
<g transform="translate(0.000000,260.000000) scale(0.100000,-0.100000)"
fill="#000000" stroke="none">
<path d="M290 2504 c0 -3 11 -20 24 -37 47 -63 87 -141 102 -199 13 -51 14
-79 5 -182 -7 -66 -18 -204 -26 -306 -8 -102 -21 -268 -29 -370 -8 -102 -22
-329 -31 -505 -21 -418 -34 -518 -81 -610 -20 -38 -47 -81 -59 -95 -19 -20
-65 -109 -65 -126 0 -2 140 -4 311 -4 l311 0 -6 48 c-14 107 -35 384 -31 410
3 15 9 121 15 237 6 116 17 289 25 385 8 96 17 234 21 307 5 100 10 133 21
137 17 7 15 9 138 -242 52 -106 102 -218 111 -249 15 -52 15 -64 0 -157 -24
-143 -22 -298 3 -370 23 -67 51 -102 111 -143 91 -63 217 -81 323 -46 77 25
150 101 172 177 47 162 -29 303 -178 330 -88 16 -174 -36 -197 -119 -12 -43
-43 -75 -58 -60 -4 4 -7 57 -6 118 0 101 3 121 33 201 47 128 100 221 199 346
64 80 292 330 302 330 5 0 12 -21 15 -47 3 -27 11 -79 16 -118 5 -38 16 -155
24 -260 8 -104 26 -275 40 -380 48 -357 43 -571 -16 -742 -10 -31 -19 -62 -19
-70 0 -11 60 -13 325 -13 179 0 325 1 325 3 0 2 -11 35 -24 73 -37 109 -64
246 -81 404 -8 80 -24 228 -35 330 -11 102 -27 250 -35 330 -33 340 -46 461
-57 555 -6 55 -12 170 -12 255 0 185 19 285 75 395 20 41 35 76 31 79 -3 3
-124 6 -269 6 l-263 0 -29 -27 c-18 -18 -108 -185 -237 -440 -114 -227 -210
-413 -214 -413 -10 0 -81 155 -231 509 -78 183 -145 325 -161 342 l-26 29
-301 0 c-166 0 -301 -3 -301 -6z"/>
</g>
</svg>
